<svg width="247" height="78" viewBox="0 0 247 78" fill="none" xmlns="http://www.w3.org/2000/svg">
<g filter="url(#filter0_d_52_16)">
<rect width="15.5691" height="50.0506" transform="matrix(0.999997 -0.00257423 0.00339876 0.999994 2.85962 19.9497)" fill="#00C2FF"/>
</g>
<rect width="15.0699" height="52.0938" transform="matrix(0.888665 -0.458557 0.563036 0.826432 22.5593 26.8201)" fill="url(#paint0_linear_52_16)"/>
<rect width="15.5691" height="50.0505" transform="matrix(1 -6.5591e-05 8.91284e-05 1 52.4265 19.6342)" fill="url(#paint1_linear_52_16)"/>
<rect x="20.0173" y="19.9095" width="15.8868" height="8.57219" fill="#00C2FF"/>
<rect x="52.1086" y="60.5583" width="15.8868" height="9.40176" fill="#1547C8"/>
<path fill-rule="evenodd" clip-rule="evenodd" d="M10.803 17.1444C16.7694 17.1444 21.6061 13.3065 21.6061 8.57219C21.6061 3.8379 16.7694 0 10.803 0C4.83669 0 0 3.8379 0 8.57219C0 13.3065 4.83669 17.1444 10.803 17.1444ZM10.803 14.0764C14.8976 14.0764 18.2169 11.5717 18.2169 8.48192C18.2169 5.39218 14.8976 2.88744 10.803 2.88744C6.70845 2.88744 3.38916 5.39218 3.38916 8.48192C3.38916 11.5717 6.70845 14.0764 10.803 14.0764Z" fill="#CFA8A8"/>
<ellipse cx="10.6442" cy="8.57226" rx="3.65397" ry="3.04175" fill="url(#paint2_linear_52_16)"/>
<path d="M69.2109 70V35.625H75.8516V70H69.2109ZM78.4688 70V40.7031H85.4609V44.4336C85.7214 43.3138 86.2031 42.3633 86.9062 41.582C87.6224 40.7878 88.612 40.3906 89.875 40.3906C91.9062 40.3906 93.3776 41.0156 94.2891 42.2656C95.2135 43.5156 95.6758 45.2279 95.6758 47.4023V70H88.7812V48.125C88.7812 47.5521 88.6641 47.0247 88.4297 46.543C88.1953 46.0482 87.7917 45.8008 87.2188 45.8008C86.6849 45.8008 86.2878 45.9896 86.0273 46.3672C85.7799 46.7318 85.6237 47.194 85.5586 47.7539C85.4935 48.3008 85.4609 48.8477 85.4609 49.3945V70H78.4688ZM102.16 70L97.4531 40.7031H104.465L106.145 60.2734L108.039 40.7031H115.031L110.246 70H102.16ZM125.07 70.3125C122.987 70.3125 121.327 69.9219 120.09 69.1406C118.853 68.3594 117.967 67.2331 117.434 65.7617C116.9 64.2904 116.633 62.5195 116.633 60.4492V48.6719C116.633 45.9505 117.414 43.8932 118.977 42.5C120.539 41.0938 122.688 40.3906 125.422 40.3906C131.047 40.3906 133.859 43.151 133.859 48.6719V50.8008C133.859 53.3789 133.833 55.1107 133.781 55.9961H123.625V61.6602C123.625 62.181 123.658 62.6953 123.723 63.2031C123.788 63.6979 123.931 64.1081 124.152 64.4336C124.387 64.7591 124.758 64.9219 125.266 64.9219C125.995 64.9219 126.451 64.6094 126.633 63.9844C126.815 63.3464 126.906 62.5195 126.906 61.5039V58.6914H133.859V60.3516C133.859 62.5391 133.586 64.375 133.039 65.8594C132.505 67.3307 131.594 68.444 130.305 69.1992C129.029 69.9414 127.284 70.3125 125.07 70.3125ZM123.586 52.5195H126.906V48.5742C126.906 47.5195 126.776 46.7643 126.516 46.3086C126.255 45.8398 125.865 45.6055 125.344 45.6055C124.784 45.6055 124.348 45.8268 124.035 46.2695C123.736 46.7122 123.586 47.4805 123.586 48.5742V52.5195ZM136.398 70V40.7031H143.391V44.4336C143.651 43.3138 144.133 42.3633 144.836 41.582C145.552 40.7878 146.542 40.3906 147.805 40.3906C149.836 40.3906 151.307 41.0156 152.219 42.2656C153.143 43.5156 153.605 45.2279 153.605 47.4023V70H146.711V48.125C146.711 47.5521 146.594 47.0247 146.359 46.543C146.125 46.0482 145.721 45.8008 145.148 45.8008C144.615 45.8008 144.217 45.9896 143.957 46.3672C143.71 46.7318 143.553 47.194 143.488 47.7539C143.423 48.3008 143.391 48.8477 143.391 49.3945V70H136.398ZM162.375 70.3125C160.487 70.3125 159.211 69.9154 158.547 69.1211C157.896 68.3138 157.57 67.0833 157.57 65.4297V47.168H155.598V41.8359H157.57V35.625H164.367V41.8359H166.34V47.168H164.367V63.7891C164.367 64.2708 164.445 64.6094 164.602 64.8047C164.758 65 165.057 65.0977 165.5 65.0977C165.812 65.0977 166.092 65.0716 166.34 65.0195V69.7852C166.184 69.8372 165.695 69.9349 164.875 70.0781C164.055 70.2344 163.221 70.3125 162.375 70.3125ZM173.918 70.3125C172.29 70.3125 171.047 69.9349 170.188 69.1797C169.341 68.4245 168.762 67.3893 168.449 66.0742C168.137 64.7591 167.98 63.2682 167.98 61.6016C167.98 59.8177 168.156 58.3594 168.508 57.2266C168.859 56.0807 169.458 55.1432 170.305 54.4141C171.164 53.6849 172.342 53.0664 173.84 52.5586L178.176 51.0742V48.0664C178.176 46.4909 177.661 45.7031 176.633 45.7031C175.695 45.7031 175.227 46.3411 175.227 47.6172V49.375H168.43C168.417 49.2708 168.41 49.1406 168.41 48.9844C168.41 48.8151 168.41 48.6263 168.41 48.418C168.41 45.5013 169.094 43.4375 170.461 42.2266C171.841 41.0026 174.022 40.3906 177.004 40.3906C178.566 40.3906 179.966 40.6706 181.203 41.2305C182.44 41.7773 183.417 42.5911 184.133 43.6719C184.862 44.7526 185.227 46.0872 185.227 47.6758V70H178.273V66.5234C177.935 67.7474 177.375 68.6849 176.594 69.3359C175.812 69.987 174.921 70.3125 173.918 70.3125ZM176.672 64.8828C177.245 64.8828 177.635 64.6419 177.844 64.1602C178.052 63.6784 178.156 63.1576 178.156 62.5977V54.4336C177.193 54.8242 176.444 55.319 175.91 55.918C175.376 56.5039 175.109 57.3698 175.109 58.5156V62.2852C175.109 64.0169 175.63 64.8828 176.672 64.8828ZM187.922 70V40.7031H195.031V43.9648C195.37 42.832 195.969 41.9466 196.828 41.3086C197.688 40.6706 198.768 40.3516 200.07 40.3516V46.1914C199.497 46.1914 198.814 46.2565 198.02 46.3867C197.225 46.5039 196.529 46.6732 195.93 46.8945C195.331 47.1029 195.031 47.3372 195.031 47.5977V70H187.922ZM201.75 38.9062V33.0859H208.742V38.9062H201.75ZM201.75 70V40.7031H208.742V70H201.75ZM216.848 70.3125C215.22 70.3125 213.977 69.9349 213.117 69.1797C212.271 68.4245 211.691 67.3893 211.379 66.0742C211.066 64.7591 210.91 63.2682 210.91 61.6016C210.91 59.8177 211.086 58.3594 211.438 57.2266C211.789 56.0807 212.388 55.1432 213.234 54.4141C214.094 53.6849 215.272 53.0664 216.77 52.5586L221.105 51.0742V48.0664C221.105 46.4909 220.591 45.7031 219.562 45.7031C218.625 45.7031 218.156 46.3411 218.156 47.6172V49.375H211.359C211.346 49.2708 211.34 49.1406 211.34 48.9844C211.34 48.8151 211.34 48.6263 211.34 48.418C211.34 45.5013 212.023 43.4375 213.391 42.2266C214.771 41.0026 216.952 40.3906 219.934 40.3906C221.496 40.3906 222.896 40.6706 224.133 41.2305C225.37 41.7773 226.346 42.5911 227.062 43.6719C227.792 44.7526 228.156 46.0872 228.156 47.6758V70H221.203V66.5234C220.865 67.7474 220.305 68.6849 219.523 69.3359C218.742 69.987 217.85 70.3125 216.848 70.3125ZM219.602 64.8828C220.174 64.8828 220.565 64.6419 220.773 64.1602C220.982 63.6784 221.086 63.1576 221.086 62.5977V54.4336C220.122 54.8242 219.374 55.319 218.84 55.918C218.306 56.5039 218.039 57.3698 218.039 58.5156V62.2852C218.039 64.0169 218.56 64.8828 219.602 64.8828Z" fill="white"/>
<defs>
<filter id="filter0_d_52_16" x="2.85962" y="19.9097" width="24.739" height="58.0903" filterUnits="userSpaceOnUse" color-interpolation-filters="sRGB">
<feFlood flood-opacity="0" result="BackgroundImageFix"/>
<feColorMatrix in="SourceAlpha" type="matrix" values="0 0 0 0 0 0 0 0 0 0 0 0 0 0 0 0 0 0 127 0" result="hardAlpha"/>
<feOffset dx="5" dy="4"/>
<feGaussianBlur stdDeviation="2"/>
<feComposite in2="hardAlpha" operator="out"/>
<feColorMatrix type="matrix" values="0 0 0 0 0 0 0 0 0 0 0 0 0 0 0 0 0 0 0.25 0"/>
<feBlend mode="normal" in2="BackgroundImageFix" result="effect1_dropShadow_52_16"/>
<feBlend mode="normal" in="SourceGraphic" in2="effect1_dropShadow_52_16" result="shape"/>
</filter>
<linearGradient id="paint0_linear_52_16" x1="7.68924" y1="13.7658" x2="6.01193" y2="52.027" gradientUnits="userSpaceOnUse">
<stop stop-color="#00C2FF"/>
<stop offset="1" stop-color="#1547C8"/>
</linearGradient>
<linearGradient id="paint1_linear_52_16" x1="7.94396" y1="13.2258" x2="6.44491" y2="49.9959" gradientUnits="userSpaceOnUse">
<stop stop-color="#00C2FF"/>
<stop offset="1" stop-color="#1547C8"/>
</linearGradient>
<linearGradient id="paint2_linear_52_16" x1="10.6442" y1="5.53052" x2="10.6442" y2="11.614" gradientUnits="userSpaceOnUse">
<stop stop-color="#00C2FF"/>
<stop offset="1" stop-opacity="0"/>
</linearGradient>
</defs>
</svg>
